<?xml version="1.0"?>
<svg xmlns="http://www.w3.org/2000/svg" viewBox="0 0 256 256" width="512" height="512"><path d="M231.057,19.477H178.934a2.5,2.5,0,0,0-2.5,2.5V37.343a2.5,2.5,0,0,0,2.5,2.5h18.155L164.308,72.624A56.525,56.525,0,0,0,90.019,70.95l-3.786-3.785,5.806-5.807a2.5,2.5,0,0,0,0-3.535l-12.83-12.83a2.5,2.5,0,0,0-3.535,0L69.868,50.8,58.912,39.843H77.066a2.5,2.5,0,0,0,2.5-2.5V21.977a2.5,2.5,0,0,0-2.5-2.5H24.943a2.5,2.5,0,0,0-2.5,2.5V74.1a2.5,2.5,0,0,0,2.5,2.5H40.31a2.5,2.5,0,0,0,2.5-2.5V55.944L53.766,66.9l-5.542,5.542a2.5,2.5,0,0,0,0,3.536l12.83,12.83a2.5,2.5,0,0,0,3.535,0l5.542-5.542,5.617,5.616a56.536,56.536,0,0,0,39.071,80.861v19.011H92.32a2.5,2.5,0,0,0-2.5,2.5v17.771a2.5,2.5,0,0,0,2.5,2.5h22.5v22.5a2.5,2.5,0,0,0,2.5,2.5H135.09a2.5,2.5,0,0,0,2.5-2.5v-22.5h22.5a2.5,2.5,0,0,0,2.5-2.5V191.254a2.5,2.5,0,0,0-2.5-2.5h-22.5V169.743a56.549,56.549,0,0,0,40.232-78.43L213.19,55.944V74.1a2.5,2.5,0,0,0,2.5,2.5h15.367a2.5,2.5,0,0,0,2.5-2.5V21.977A2.5,2.5,0,0,0,231.057,19.477Zm-2.5,52.123H218.19V49.909a2.5,2.5,0,0,0-4.267-1.768L173.049,89.016a2.5,2.5,0,0,0-.481,2.86,51.542,51.542,0,0,1-37.886,73.32,2.5,2.5,0,0,0-2.092,2.467v23.591a2.5,2.5,0,0,0,2.5,2.5h22.5v12.771h-22.5a2.5,2.5,0,0,0-2.5,2.5v22.5H119.819v-22.5a2.5,2.5,0,0,0-2.5-2.5H94.82V193.754h22.5a2.5,2.5,0,0,0,2.5-2.5V167.663a2.5,2.5,0,0,0-2.091-2.467A51.53,51.53,0,0,1,81.01,89.62a2.5,2.5,0,0,0-.424-2.971L71.9,77.963a2.5,2.5,0,0,0-3.535,0L62.822,83.5l-9.3-9.294,5.542-5.542a2.5,2.5,0,0,0,0-3.535L42.078,48.141a2.5,2.5,0,0,0-4.268,1.768V71.6H27.444V24.476H74.566V34.843H52.876a2.5,2.5,0,0,0-1.768,4.267L68.1,56.1a2.5,2.5,0,0,0,3.535,0L77.441,50.3l9.3,9.294L80.93,65.4a2.5,2.5,0,0,0,0,3.535l7.2,7.2a2.5,2.5,0,0,0,3.449.084,51.52,51.52,0,0,1,71,1.671,2.5,2.5,0,0,0,3.533,0L204.892,39.11a2.5,2.5,0,0,0-1.768-4.267h-21.69V24.477h47.123Z" fill="#846f75"/><path d="M118.583,141.31a10.611,10.611,0,0,1-7.948-3.586l-15.178-17.2a10.6,10.6,0,0,1,15.9-14.031l7.169,8.126L137.4,92.892a10.6,10.6,0,1,1,16,13.906l-26.814,30.864a10.6,10.6,0,0,1-7.961,3.648Zm-15.183-33.4a5.6,5.6,0,0,0-4.194,9.3l15.178,17.2a5.606,5.606,0,0,0,4.2,1.894h.032a5.6,5.6,0,0,0,4.2-1.928l26.814-30.863a5.6,5.6,0,0,0-8.455-7.348l-20.748,23.88a2.5,2.5,0,0,1-1.878.86,2.614,2.614,0,0,1-1.883-.846L107.605,109.8A5.594,5.594,0,0,0,103.4,107.908Z" fill="#a58bc9"/></svg>
